<?xml version="1.0" standalone="no"?><!DOCTYPE svg PUBLIC "-//W3C//DTD SVG 1.1//EN" "http://www.w3.org/Graphics/SVG/1.1/DTD/svg11.dtd"><svg t="1610025664552" class="icon" viewBox="0 0 1024 1024" version="1.1" xmlns="http://www.w3.org/2000/svg" p-id="4685" xmlns:xlink="http://www.w3.org/1999/xlink" width="64" height="64"><defs><style type="text/css"></style></defs><path d="M941.568 163.84c-0.512-28.672-11.776-54.784-31.232-74.24-19.968-19.968-46.592-31.232-74.24-31.232l-648.192 1.024c-25.088 0-45.568 20.48-45.568 45.568v103.424h-28.672c-16.896 0-30.72 13.824-30.72 30.72s13.824 30.72 30.72 30.72h28.672v115.2h-28.672c-16.896 0-30.72 13.824-30.72 30.72s13.824 30.72 30.72 30.72h28.672v115.2h-28.16c-16.896 0-30.72 13.824-30.72 30.72s13.824 30.72 30.72 30.72h28.16v115.2h-28.16c-16.896 0-30.72 13.824-30.72 30.72s13.824 30.72 30.72 30.72h28.16v119.808c0 25.088 20.48 45.568 45.568 45.568l648.704-0.512c57.856 0 104.96-47.104 104.96-104.96V163.84z m-174.592-44.032H834.56c25.6 0.512 45.056 19.456 45.056 44.032v694.784c0 25.088-19.968 45.568-45.056 45.568h-67.584V119.808zM289.792 768c0-16.896-13.824-30.72-30.72-30.72h-56.32v-114.688h56.32c16.896 0 30.72-13.824 30.72-30.72s-13.824-30.72-30.72-30.72h-56.32V445.952h56.32c16.896 0 30.72-13.824 30.72-30.72s-13.824-30.72-30.72-30.72H203.264V269.312h55.808c16.896 0 30.72-13.824 30.72-30.72s-13.824-30.72-30.72-30.72H203.776v-71.68c0-8.704 7.168-15.872 15.872-15.872h486.4v783.872H218.624c-9.216 0-16.384-7.168-16.384-16.384V798.72h56.832c16.896 0 30.72-13.824 30.72-30.72z" p-id="4686"></path></svg>