<?xml version="1.0" standalone="no"?><!DOCTYPE svg PUBLIC "-//W3C//DTD SVG 1.1//EN" "http://www.w3.org/Graphics/SVG/1.1/DTD/svg11.dtd"><svg t="1610025654424" class="icon" viewBox="0 0 1024 1024" version="1.1" xmlns="http://www.w3.org/2000/svg" p-id="4539" xmlns:xlink="http://www.w3.org/1999/xlink" width="64" height="64"><defs><style type="text/css"></style></defs><path d="M0.234057 508.679314C0.234057 789.562514 227.913143 1017.270857 508.781714 1017.270857c280.868571 0 508.576914-227.693714 508.576915-508.576914 0-280.868571-227.693714-508.562286-508.576915-508.562286C227.927771 0.117029 0.234057 227.810743 0.234057 508.679314z" fill="#EBF2FF" p-id="4540"></path><path d="M327.621486 728.283429H659.456c11.527314 0 17.290971 5.763657 17.290971 17.290971v5.953829c0 11.527314-5.763657 17.290971-17.290971 17.290971H327.621486c-11.527314 0-17.3056-5.763657-17.3056-17.290971v-5.953829c0-11.527314 5.778286-17.290971 17.3056-17.290971z" fill="#ABC6F6" p-id="4541"></path><path d="M706.194286 272.018286H280.868571a46.811429 46.811429 0 0 0-46.811428 46.811428v305.5616a46.811429 46.811429 0 0 0 46.811428 46.811429h425.325715a46.811429 46.811429 0 0 0 46.811428-46.811429V318.858971a46.840686 46.840686 0 0 0-46.811428-46.840685z m-97.879772 225.718857a11.585829 11.585829 0 0 1-18.8416-3.803429l-49.298285-119.442285-84.158172 212.7872a11.585829 11.585829 0 0 1-21.577143-0.043886l-56.949028-146.578286-65.287315 100.352a11.585829 11.585829 0 1 1-19.412114-12.624457l77.604572-119.310629a11.585829 11.585829 0 0 1 20.523885 2.121143l54.432915 140.0832 83.850971-211.968a11.585829 11.585829 0 0 1 10.678857-7.314285h0.087772c4.695771 0 8.923429 2.823314 10.722742 7.153371l53.6576 130.018743 71.094858-70.129372a11.585829 11.585829 0 0 1 16.2816 16.4864l-83.412115 82.212572z" fill="#377FFC" p-id="4542"></path></svg>