<?xml version="1.0" standalone="no"?><!DOCTYPE svg PUBLIC "-//W3C//DTD SVG 1.1//EN" "http://www.w3.org/Graphics/SVG/1.1/DTD/svg11.dtd"><svg t="1610025673469" class="icon" viewBox="0 0 1024 1024" version="1.1" xmlns="http://www.w3.org/2000/svg" p-id="4829" xmlns:xlink="http://www.w3.org/1999/xlink" width="64" height="64"><defs><style type="text/css"></style></defs><path d="M772.5 687.2c-40.2 0-72.8 32.6-72.8 72.9 0 40.2 32.6 72.9 72.8 72.9 40.2 0 72.8-32.6 72.8-72.9 0-40.3-32.6-72.9-72.8-72.9z m0 103.6c-16.9 0-30.6-13.7-30.6-30.7 0-16.9 13.7-30.7 30.6-30.7 16.9 0 30.6 13.7 30.6 30.7 0.1 16.9-13.6 30.7-30.6 30.7z" p-id="4830"></path><path d="M681.2 602.9l-90.7 157.2 90.7 157.2h181.3l90.6-157.1v-0.2l-90.6-157.1H681.2z m157 272.3H705.5l-66.3-115.1L705.5 645h132.7l66.3 115.1-66.3 115.1z" p-id="4831"></path><path d="M178.7 587.5V124c0-14.2-11.5-25.7-25.7-25.7s-25.7 11.5-25.7 25.7v462c-36.6 10.9-61.6 44.5-61.6 82.6 0 38.1 25.1 71.7 61.6 82.6v139.1c0 14.2 11.5 25.7 25.7 25.7s25.7-11.5 25.7-25.7V752.8c36.5-10.9 61.6-44.5 61.6-82.6 0-38.2-25.1-71.8-61.6-82.7zM153 705.6v0.5c-19.8 0-35.9-16.1-35.9-35.9 0-19.8 16.1-35.9 35.9-35.9 19.8 0 35.9 16.1 35.9 35.9-0.2 19.6-16.2 35.4-35.9 35.4zM487.7 424.3V124c0-14.2-11.5-25.7-25.7-25.7s-25.7 11.5-25.7 25.7v300.3c-36.6 10.9-61.6 44.5-61.6 82.6 0 38.1 25.1 71.7 61.6 82.6v302.3c0 14.2 11.5 25.7 25.7 25.7s25.7-11.5 25.7-25.7V589.6c36.5-10.9 61.6-44.5 61.6-82.6 0-38.2-25.1-71.8-61.6-82.7z m-25.7 118v0.5c-19.8 0-35.9-16.1-35.9-35.9 0-19.8 16.1-35.9 35.9-35.9 19.8 0 35.9 16.1 35.9 35.9-0.2 19.7-16.2 35.4-35.9 35.4zM796.7 255.3V123.1c0-13.7-11.5-24.7-25.7-24.7s-25.7 11.1-25.7 24.7v131.7c-36.5 10.5-61.6 42.9-61.6 79.7 0 36.8 25.1 69.2 61.6 79.7v137.5c0 13.7 11.5 24.7 25.7 24.7s25.7-11.1 25.7-24.7v-137c36.5-10.5 61.6-42.9 61.6-79.7 0-36.8-25.1-69.2-61.6-79.7zM771 369.1c-19.8 0-35.9-15.5-35.9-34.6s16.1-34.6 35.9-34.6c19.8 0 35.9 15.5 35.9 34.6 0.1 19.1-16 34.6-35.9 34.6z" p-id="4832"></path></svg>