<?xml version="1.0" standalone="no"?><!DOCTYPE svg PUBLIC "-//W3C//DTD SVG 1.1//EN" "http://www.w3.org/Graphics/SVG/1.1/DTD/svg11.dtd"><svg t="1610025607892" class="icon" viewBox="0 0 1024 1024" version="1.1" xmlns="http://www.w3.org/2000/svg" p-id="3811" xmlns:xlink="http://www.w3.org/1999/xlink" width="64" height="64"><defs><style type="text/css"></style></defs><path d="M470.79577 942.589965a17.434036 17.434036 0 0 1-6.681767 14.438761 27.725493 27.725493 0 0 1-17.818046 5.299332 55.911798 55.911798 0 0 1-20.42931-2.918473v-5.068926a51.764494 51.764494 0 0 0 20.045301 3.302482 22.426161 22.426161 0 0 0 14.208355-4.070502 12.979524 12.979524 0 0 0 5.222531-10.752268 12.441911 12.441911 0 0 0-1.766445-6.835371 15.821196 15.821196 0 0 0-5.683342-4.915323 70.196955 70.196955 0 0 0-11.520288-4.838521 39.706593 39.706593 0 0 1-15.360384-8.294608 17.741244 17.741244 0 0 1 2.150454-25.191029 25.421436 25.421436 0 0 1 16.435611-5.145729 48.154804 48.154804 0 0 1 19.277282 3.840096l-1.843246 4.377709a45.005925 45.005925 0 0 0-17.357234-3.763294 20.275707 20.275707 0 0 0-12.825921 3.763294 12.211505 12.211505 0 0 0-4.761719 10.137854 13.286732 13.286732 0 0 0 1.459237 6.604965 13.440336 13.440336 0 0 0 4.761719 4.684917 65.665642 65.665642 0 0 0 11.443486 4.915323 62.055951 62.055951 0 0 1 12.749119 5.683342 18.355659 18.355659 0 0 1 6.220955 6.297758 17.20363 17.20363 0 0 1 2.073652 8.448211zM499.21248 957.950349a36.864922 36.864922 0 0 0 8.141004-0.768019v3.993699a26.112653 26.112653 0 0 1-8.294608 1.228831 13.440336 13.440336 0 0 1-10.598664-3.840096 17.818045 17.818045 0 0 1-3.379285-12.057901v-34.944874h-7.680192v-2.918473l7.680192-2.227256 2.457661-12.211505h2.534464v13.056327h15.897997v4.300907h-15.821195v34.253656a15.360384 15.360384 0 0 0 2.227255 9.216231 7.680192 7.680192 0 0 0 6.835371 2.918473zM551.898597 961.406435l-1.22883-8.525013h-0.38401a25.805445 25.805445 0 0 1-8.371409 7.680192 22.349359 22.349359 0 0 1-10.214656 2.150454 17.58764 17.58764 0 0 1-12.365109-4.070502 14.592365 14.592365 0 0 1-4.761719-11.673892 13.901148 13.901148 0 0 1 6.604965-12.288307 35.866497 35.866497 0 0 1 19.046877-4.608115h10.291457v-3.60969a18.432461 18.432461 0 0 0-3.148879-11.673892 12.211505 12.211505 0 0 0-10.137853-3.916898 33.716043 33.716043 0 0 0-15.360384 4.147303l-1.843246-4.300907A41.319433 41.319433 0 0 1 537.61344 906.262657a17.510838 17.510838 0 0 1 13.286733 4.608115 20.352509 20.352509 0 0 1 4.377709 14.438761v35.943298z m-19.891697-3.456086a17.20363 17.20363 0 0 0 18.662867-18.739669v-5.299332l-9.446636 0.384009a35.789695 35.789695 0 0 0-16.282007 3.532889 10.214655 10.214655 0 0 0-4.838521 9.369834 10.061052 10.061052 0 0 0 3.148878 7.680192 12.595515 12.595515 0 0 0 8.755419 2.995275zM594.370059 906.262657a42.39466 42.39466 0 0 1 7.680192 0.691217l-0.921623 4.761719a28.570314 28.570314 0 0 0-6.988975-0.844821 13.59394 13.59394 0 0 0-11.366684 5.836946 23.962199 23.962199 0 0 0-4.454511 14.82277v29.875947h-4.915323v-53.761344h4.147304l0.460811 9.753844a27.111078 27.111078 0 0 1 7.680192-8.371409 16.666017 16.666017 0 0 1 8.678617-2.764869zM280.096602 790.522163a46.618765 46.618765 0 0 1-10.82907-31.719193v-4.224106L277.946149 614.41536v-5.376134A166.967374 166.967374 0 0 0 245.766144 516.339308l-88.936623-108.290707A50.151654 50.151654 0 0 1 144.157204 376.329408c0-18.662867 13.977949-34.176854 35.712893-39.476187l135.862596-35.175279A164.81692 164.81692 0 0 0 399.369984 241.234831L474.712668 122.883072a41.319433 41.319433 0 0 1 74.651466 0l75.419486 118.351759a164.81692 164.81692 0 0 0 83.483687 60.673517l135.862596 35.175279c21.734943 5.376134 35.866497 20.890122 35.712893 39.476187a50.228456 50.228456 0 0 1-12.672317 31.488787l-89.243831 108.290707a167.044176 167.044176 0 0 0-32.0264 92.77672v5.376134l8.601815 140.163504v4.224106a46.618765 46.618765 0 0 1-10.829071 31.719193 37.786545 37.786545 0 0 1-28.723918 12.211505 57.063827 57.063827 0 0 1-20.966924-4.300907l-130.563265-51.457287a147.459686 147.459686 0 0 0-51.61089-8.294607 147.459686 147.459686 0 0 0-51.61089 8.294607l-130.563264 51.457287a57.294232 57.294232 0 0 1-20.966924 4.300907 37.863347 37.863347 0 0 1-28.570315-12.288307z m131.17768-541.60714a177.719643 177.719643 0 0 1-92.162304 66.81767l-135.632191 35.098478c-17.58764 4.761719-24.883822 14.515563-25.037426 25.651841a35.943299 35.943299 0 0 0 9.369834 22.426161L257.132828 506.892672a180.177304 180.177304 0 0 1 35.328884 101.916148v6.220956l-8.832221 140.547513v3.225681a32.41041 32.41041 0 0 0 7.21938 22.195755 23.040576 23.040576 0 0 0 18.125253 7.680192 43.239481 43.239481 0 0 0 15.360384-3.302483l130.563264-51.457286a161.284032 161.284032 0 0 1 56.833421-9.293032 161.284032 161.284032 0 0 1 56.833421 9.293032l130.563264 51.457286a43.316283 43.316283 0 0 0 15.360384 3.302483 23.501388 23.501388 0 0 0 18.125253-7.680192 32.564014 32.564014 0 0 0 7.219381-22.195755v-3.302482l-7.9874-140.086703v-6.220955A180.100503 180.100503 0 0 1 766.943974 506.892672l89.243831-108.290707a36.096902 36.096902 0 0 0 9.446636-22.272557c0-11.136278-7.680192-20.890122-25.037426-25.651841l-135.862597-34.944874a177.719643 177.719643 0 0 1-92.162304-66.81767L537.61344 130.563264a27.341484 27.341484 0 0 0-50.535663 0z" fill="#262626" p-id="3812"></path><path d="M577.857646 600.207005l-29.338333-11.520288a110.901973 110.901973 0 0 0-73.115428 0l-29.261531 11.520288a19.661292 19.661292 0 0 1-7.142579 1.382435 14.669167 14.669167 0 0 1-10.982675-4.761719 16.742819 16.742819 0 0 1-3.993699-11.289883v-1.305632l1.99685-31.258382v-4.377709a112.207605 112.207605 0 0 0-23.040577-65.128028l-20.045301-24.346209a17.58764 17.58764 0 0 1-4.300907-11.136278 15.360384 15.360384 0 0 1 13.056326-14.976375l30.720768-7.680192a111.055576 111.055576 0 0 0 59.137479-43.009075l16.896422-26.573464a15.360384 15.360384 0 0 1 27.264682 0l16.896422 26.573464a111.20918 111.20918 0 0 0 59.137479 43.009075l30.720768 7.680192A15.360384 15.360384 0 0 1 645.136128 447.755194a17.58764 17.58764 0 0 1-4.300907 11.136278l-20.045301 24.269407a112.207605 112.207605 0 0 0-23.040576 65.20483v4.37771l1.920048 31.488787v1.305632a16.742819 16.742819 0 0 1-3.9937 11.289883 14.592365 14.592365 0 0 1-10.982675 4.761719 19.58449 19.58449 0 0 1-6.835371-1.382435z m5.222531-13.286732a5.299332 5.299332 0 0 0 1.843246 0.38401c0.460812 0 0.691217-0.614415 0.691217-1.766445v-0.460811L583.694592 553.665042v-5.299333a125.801545 125.801545 0 0 1 26.035851-74.267457L629.775744 449.828846a3.9937 3.9937 0 0 0 1.075227-2.073652 4.300908 4.300908 0 0 0-1.99685-0.998425l-30.720768-7.680192a124.495912 124.495912 0 0 1-67.585689-49.153229l-16.973225-26.573464a4.608115 4.608115 0 0 0-1.382434-1.536039 2.918473 2.918473 0 0 0-1.766444 1.536039l-16.896423 26.573464a124.649516 124.649516 0 0 1-67.662491 49.153229l-30.720768 7.680192a3.916898 3.916898 0 0 0-1.99685 0.921623s0 0.768019 1.075227 2.073652L414.730368 474.098252a125.801545 125.801545 0 0 1 25.959049 74.267457v5.222531l-1.920048 31.642391a4.377709 4.377709 0 0 0 0 1.99685h0.38401a5.222531 5.222531 0 0 0 1.843246-0.38401l29.338333-11.520288a125.033526 125.033526 0 0 1 83.560489 0zM338.619665 368.649216a7.142579 7.142579 0 0 1 5.145729-8.678617 155.907898 155.907898 0 0 0 19.430886-6.528163 7.142579 7.142579 0 1 1 5.376134 13.20993 165.047326 165.047326 0 0 1-21.19733 7.142579 6.835371 6.835371 0 0 1-1.766444 0 7.142579 7.142579 0 0 1-6.988975-5.145729z m73.806646-34.560864a7.142579 7.142579 0 0 1 1.22883-10.061051 190.929573 190.929573 0 0 0 43.316283-46.081152 7.142579 7.142579 0 0 1 12.057902 7.680192A205.061127 205.061127 0 0 1 422.41056 335.393985a7.142579 7.142579 0 0 1-10.061051-1.228831z" fill="#262626" p-id="3813"></path></svg>